<svg id="Layer_1" data-name="Layer 1" xmlns="http://www.w3.org/2000/svg" viewBox="0 0 222.14 325.99" height="200px" width="120px">
  <defs>
    <style>
      .cls-1 {
        fill: #231f20;
      }

      .cls-1,
      .cls-2 {
        stroke: #231f20;
        stroke-miterlimit: 10;
      }

      .cls-2 {
        fill: #440055;
      }
      #color1 {
        stop-color: #ffff07
      }
      #color2 {
        stop-color: #ffff07
      }

    </style>
  </defs>
  <defs>
    <linearGradient id="grad1" x1="100%" y1="0%" x2="0%" y2="0%">
      <stop id="color1" offset="0" />
      <stop id="color2" offset="1" />
    </linearGradient>
  </defs>
  <title>hirshi2</title>
  <path class="cls-1" d="M126.92,30.27" transform="translate(-175.47 -201.16)" />
  <path class="cls-1" d="M130.58,28.11" transform="translate(-175.47 -201.16)" />
  <path fill="grad1" d="M270.64,505.76" transform="translate(-175.47 -201.16)" />
  <path fill="grad1" d="M268.76,524.56" transform="translate(-175.47 -201.16)" />
  <path fill="grad1" d="M283,223.3" transform="translate(-175.47 -201.16)" />
  <path fill="grad1" d="M272.51,232.15" transform="translate(-175.47 -201.16)" />
  <path fill="url(#grad1)"
    d="M229.54,488.26c-1.41.07-6.61.26-7.84,3.06-.82,1.86.46,4.07.76,4.59,3.94,6.8,16.92,7,23.53,7.08,8.7.12,10.9.81,17,.76,7.62-.05,10.06,4,8.93,7.31a3.52,3.52,0,0,1-.16.39,11.92,11.92,0,0,1-2.56,3.45c-1.28,1.18-3.78,4.43-3.28,6.66a6,6,0,0,0,1,2.23c2.66,3.45,8.78,2.84,9.28,2.79,9.69-1.09,10.11-13.67,20-15.71,5.12-1.05,6.19,2.07,13.6.66,6.14-1.17,10.13-4.22,10.87-6.66.11-.36.43-1.43-.09-2.06s-1.81-.5-2.63-.38c-4.26.62-6.39.93-7.78.75-2.9-.36-4.82-2.7-5.53-3.56-3.42-4.16-2.38-9.54-2.06-11.16s1.51-7.77,7-10.4a13,13,0,0,1,10.59.09c1.3.59,4.33,2,5.53,5,1.12,2.8.31,6.09-.18,8.06-.7,2.81-1.6,3.89-.94,5.07.93,1.65,3.88,1.6,4.5,1.59,3.06-.06,5.27-1.73,8-3.84,3.17-2.49,4.76-3.73,5.62-5.91,1.28-3.25-.06-5.41,2-8.16a8.41,8.41,0,0,1,2.63-2.25c3.78-2.22,6.06-.14,9.84-1.59,5.26-2,6.64-8.3,6.75-8.81.2-1,.61-3-.47-3.94s-2.83-.45-3.84-.19c-2,.51-2.28,1.28-4.13,2.06a9.48,9.48,0,0,1-6.09.66,9,9,0,0,1-4.88-3.75,12.52,12.52,0,0,1-2.15-6.84,13.57,13.57,0,0,1,1-7c.25-.55,3-6.16,9-7a11,11,0,0,1,8.06,2,9.59,9.59,0,0,1,3.66,5.44c.65,3.13-1.16,4.39-.28,8.06.25,1.05.71,3,2.15,3.57s3.23-.61,4.22-1.32a15.92,15.92,0,0,0,6.38-11.34c.3-3.42-.74-4.68.37-7.69.57-1.54,1.15-2,2.81-4.31,5.57-7.6,6.16-11.71,6.29-12.84.35-3.16-.54-4.15-.94-4.5a3.61,3.61,0,0,0-2.81-.66c-1.48.27-2.06,1.34-3.47,2.72a15.64,15.64,0,0,1-5.63,3.56,10,10,0,0,1-6.56-.09,10.63,10.63,0,0,1-5.44-5.44,15,15,0,0,1-1.12-9.66c.44-2.7,1-6.18,4-8.43a10.26,10.26,0,0,1,7.12-1.79,11,11,0,0,1,6.28,2.91c3.85,3.71,2.5,8.36,5.82,9.75a5,5,0,0,0,3.93-.19c2.64-1.27,3.24-4.8,3.85-8.34.38-2.22.22-2.76.56-8.91.2-3.51.29-5.26.38-5.72,1.19-6.71,5.12-8.48,5.06-14.15,0-2.59-.87-3.53-1.41-3.94a3,3,0,0,0-2.81-.47c-.54.21-1.11.67-2,2.63-1,2.33-.86,3.14-1.5,4.78a10.42,10.42,0,0,1-3.28,4.5,9.72,9.72,0,0,1-6.38,1.87,10.5,10.5,0,0,1-5.9-2.72,15.52,15.52,0,0,1-4.88-6.65,13.51,13.51,0,0,1-.47-9.38,11.63,11.63,0,0,1,4.41-5.81c.94-.62,3.37-2.24,6.19-1.69,1.46.29,2.4,1,3.94,2.25,3.07,2.43,3,3.88,5.15,4.6a5.81,5.81,0,0,0,4.31-.28c2.12-1.13,2.68-3.51,3-4.88a9.42,9.42,0,0,0-.18-5.16c-.15-.43-.52-1.4-3.38-4.78s-3.44-3.55-4.12-5.25a7.17,7.17,0,0,1-.57-4.31c.4-1.81,1.43-2.15,2.44-4a10.79,10.79,0,0,0,1.13-6.28c-.35-2.74-1.84-4.41-4.5-7.41-2.13-2.39-4.36-4.9-6.19-4.31a2.88,2.88,0,0,0-1.69,2.06c-.34,1.48.76,2.26,1.5,4.5a11.6,11.6,0,0,1,.38,5.35,9.28,9.28,0,0,1-2.53,5.15c-2.06,2-4.59,2.25-6.47,2.44a12.26,12.26,0,0,1-7.22-1.13,14.69,14.69,0,0,1-6.85-14.25,11,11,0,0,1,3.94-6.46,10.37,10.37,0,0,1,4.69-2c4.41-.66,6.61,2,9,.56a4.71,4.71,0,0,0,1.87-2.72,6,6,0,0,0-.65-4.31,9.41,9.41,0,0,0-3.47-3.66,14.49,14.49,0,0,0-2.91-1.5,17.49,17.49,0,0,1-8.53-8.62c-1.82-4.34.83-5.41-1-10-.22-.54-2.4-5.76-7.41-7.22-1.07-.32-3.55-1-5.62.37a5.2,5.2,0,0,0-2.25,4c0,1.88,1.21,2.19,2.06,5,.41,1.34,1,3.41.1,5.44a5.53,5.53,0,0,1-3.85,3.09c-.68.13-1.65.14-4.69-1.31a42.53,42.53,0,0,1-5.9-3.47c-2.59-1.78-3-2.26-6.1-4.4-2.46-1.7-3.9-2.56-5.81-2.63a4.21,4.21,0,0,0-3,.84,3.62,3.62,0,0,0-1,1.69c-.39,1.3-.09,2.78,1,4.78,1.59,2.84,2.83,3.14,4.41,5.25,2,2.65,2.42,5.36,3,8.91a30.55,30.55,0,0,1,.19,8.34,31.74,31.74,0,0,1-2.82,9.75,31.26,31.26,0,0,1-5.62,8.91,30.87,30.87,0,0,1-8.25,6.37,33.39,33.39,0,0,1-11.91,4.13c-6.3.86-11.32,1-17-.61a58,58,0,0,1-15.56-7.12,47.61,47.61,0,0,1-11.62-10.5,40.23,40.23,0,0,1-6.75-11.63c-2.89-8.13-2.29-16.37-1.32-25.12a74.48,74.48,0,0,1,2.82-13.5c.49-1.74,3.62-9.06,8.62-18a81.94,81.94,0,0,1,7.31-11.06c4.31-5.44,17.8-22.49,32.44-25.22,1.57-.29,6.13-1,8-4.26a6.81,6.81,0,0,0,.47-5.21c-.43-1.18-1.51-2.94-5.16-4.45-13.19-5.46-33.29,3.39-35.53,5.2a11.93,11.93,0,0,1-3.14,1.85,6.61,6.61,0,0,1-1.27.4,5.56,5.56,0,0,1-3.46-.19,4.84,4.84,0,0,1-2.25-2.53c-1.26-2.66.11-4.23-1.13-5.62-.87-1-2.3-1.06-3.66-1.13a7.09,7.09,0,0,0-4,.85,6.86,6.86,0,0,0-2.62,3.28c-.36.77-4.09,8.68-9.38,10.78-3.07,1.22-3.64-.73-7.78.47a15.36,15.36,0,0,0-8.15,6c-.41.59-3,4.41-2.35,8.62.09.57.32,2.06,1.14,2.31s1.31-.72,2.8-1.35a9,9,0,0,1,3.18-.48c2.83,0,10.69,3.21,10.69,10.69a10.8,10.8,0,0,1-10.69,10.69c-7.89,0-11.14-9.15-10.69-10.69a12.06,12.06,0,0,0,.45-2.12c.06-.56.07-1,.07-1.19a11.41,11.41,0,0,0-.05-1.26,5.38,5.38,0,0,0-.84-2.47,4.18,4.18,0,0,0-2.12-1.7c-1.86-.46-3.89,2-5.75,4.32-3.31,4.11-6.26,7.79-5.63,11.82a7.06,7.06,0,0,1,0,4.12A7.29,7.29,0,0,1,194.7,257a65.63,65.63,0,0,0-4.69,4.87,13.71,13.71,0,0,0-2.25,5.25c-.66,2.88,0,3.72.19,3.94a2.22,2.22,0,0,0,1.88.75c1-.15,1.52-1.21,2.25-2.25a16.88,16.88,0,0,1,4.12-3.94,9.91,9.91,0,0,1,6.37-1.75,9.64,9.64,0,0,1,5.55,2.48,10.61,10.61,0,0,1,2.87,4.4,13.51,13.51,0,0,1,.57,6.7c-.32,2.53-.64,5.08-2.68,7.08-2.27,2.22-5.28,2.38-7.27,2.48a10.21,10.21,0,0,1-5.74-.95,9.56,9.56,0,0,1-4.2-4.59c-.86-2.15-.45-3.85-1.73-4.59a2.67,2.67,0,0,0-1.91-.2c-1.29.29-3.68,1.7-6.12,11.86-1.23,5.13-.81,5.52-1.91,11.29-1.9,9.87-3.94,12.88-1.92,16.07,1.13,1.77,3.33,3.32,5,2.87,1.31-.36,1.95-1.9,2.87-4.21,1.71-4.31.89-5.75,2.29-7.08,2.25-2.13,6.73-.68,7.65-.38a12.69,12.69,0,0,1,7.08,6.12,13.69,13.69,0,0,1,1.53,7.08,12.67,12.67,0,0,1-1.91,6.31,9.79,9.79,0,0,1-5,4.4,9.55,9.55,0,0,1-6.51-.19,10.67,10.67,0,0,1-3.82-2.87c-2-2.19-2.13-3.85-3.83-4.4a4.12,4.12,0,0,0-2.68.19c-3.65,1.4-4.41,7.05-4.59,8.42a12.52,12.52,0,0,0,1,7.65c1.1,2.13,2.1,2.14,3.82,5.17,1.17,2.06,2,3.47,1.72,5.16-.3,2.05-1.82,2.35-3.06,4.78a11.24,11.24,0,0,0-1,6.51c0,.32.87,6.5,5.93,9.18.92.49,3.59,1.91,5.93.77a4.91,4.91,0,0,0,2.1-2.11c1.24-2.39-.49-4,0-7.08a9.76,9.76,0,0,1,3.64-5.74,10.33,10.33,0,0,1,7.07-2.48,10,10,0,0,1,6.32,2.68c2.84,2.74,2.95,6.45,3.06,9.75.08,2.59.14,4.66-1.15,6.89a10,10,0,0,1-6.31,4.59,12.07,12.07,0,0,1-7.27-1.34c-2.61-1.21-3.78-2.67-5.74-2.29a4.37,4.37,0,0,0-2.3,1.33c-2.5,2.65-1.25,7.52-.57,10.14s1.53,5.94,4.4,8.42,4.41,1.21,6.89,3.25c3.74,3.1,1.43,7,5.16,14.35,1.16,2.28,3.72,7.28,8,7.84a6.18,6.18,0,0,0,4.78-1.34c1.28-1.25,1-2.63,1.72-5.54s1.42-5.83,3.25-7.08c3.86-2.63,11.83,2.77,12.25,3.06,4.28,3,5.17,5.85,10.13,7.65,3.41,1.24,4.39.39,4.6.19.94-.91.49-2.8.19-4a17.4,17.4,0,0,0-3.45-6.51c-2.74-3.83-3-8.08-3.25-11.67-.45-6.95,2.28-12.27,3.64-14.92a36.5,36.5,0,0,1,13.77-14.35,39.55,39.55,0,0,1,19.32-5.16A40,40,0,0,1,299.56,363a36,36,0,0,1,14.92,11.67c6.93,9.51,7,20.36,7.08,28.31a65.3,65.3,0,0,1-.31,6.9c-1.67,17-10.15,30.16-13.08,34.61a100,100,0,0,1-38.63,33.13C251.83,486,241.36,487.7,229.54,488.26Z"
    transform="translate(-175.47 -201.16)" />
  <path fill="grad1" d="M291.26,515.46" transform="translate(-175.47 -201.16)" />
  <path fill="grad1" d="M270.17,207.5" transform="translate(-175.47 -201.16)" />
  <path fill="grad1" d="M274.58,208.15" transform="translate(-175.47 -201.16)" />
  <path fill="grad1" d="M283,205.34" transform="translate(-175.47 -201.16)" />
</svg>
